<svg width="18" height="15" viewBox="0 0 18 15" fill="none" xmlns="http://www.w3.org/2000/svg">
<path fill-rule="evenodd" clip-rule="evenodd" d="M0.0132263 4.21125C-1.9499e-10 4.75041 0 5.36256 0 6.06092V8.05678C0 10.8852 0 12.2994 0.87868 13.1781C1.75736 14.0568 3.17157 14.0568 6 14.0568H12C14.8284 14.0568 16.2426 14.0568 17.1213 13.1781C18 12.2994 18 10.8852 18 8.05677V6.06091C18 5.36255 18 4.75041 17.9868 4.21125L9.97107 8.66311C9.36714 8.99852 8.63287 8.99852 8.02893 8.66311L0.0132263 4.21125ZM0.243195 2.08979C0.325955 2.11059 0.407394 2.14241 0.485533 2.18581L9 6.91467L17.5145 2.18581C17.5926 2.14241 17.674 2.1106 17.7568 2.0898C17.6268 1.61667 17.4274 1.24565 17.1213 0.939593C16.2426 0.0609131 14.8284 0.0609131 12 0.0609131H6C3.17157 0.0609131 1.75736 0.0609131 0.87868 0.939593C0.572627 1.24565 0.373176 1.61667 0.243195 2.08979Z" fill="white"/>
</svg>
